PathFileType	4	(X/Y/Z)	C:/Users/opensim2020/Desktop/walking_exp_matlab/subject02_walking11_straight_03.trc																																																																																																																												
DataRate	CameraRate	NumFrames	NumMarkers	Units	OrigDataRate	OrigDataStartFrame	OrigNumFrames																																																																																																																								
100	100	4	42	mm	100	2567	250																																																																																																																								
Frame#	Time	LFHD			RFHD			LBHD			RBHD			C7			T10			CLAV			STRN			RBAK			LSHO			LUPA			LELB			LFRM			LWRA			LWRB			LFIN			RSHO			RUPA			RELB			RFRM			RWRA			RWRB			RFIN			LASI			RASI			LPSI			RPSI			LTHI			LKNE			LTIB			LANK			LHEE			LTOE			RTHI			RKNE			RTIB			RANK			RHEE			RTOE			*39			*40			*41		
		X1	Y1	Z1	X2	Y2	Z2	X3	Y3	Z3	X4	Y4	Z4	X5	Y5	Z5	X6	Y6	Z6	X7	Y7	Z7	X8	Y8	Z8	X9	Y9	Z9	X10	Y10	Z10	X11	Y11	Z11	X12	Y12	Z12	X13	Y13	Z13	X14	Y14	Z14	X15	Y15	Z15	X16	Y16	Z16	X17	Y17	Z17	X18	Y18	Z18	X19	Y19	Z19	X20	Y20	Z20	X21	Y21	Z21	X22	Y22	Z22	X23	Y23	Z23	X24	Y24	Z24	X25	Y25	Z25	X26	Y26	Z26	X27	Y27	Z27	X28	Y28	Z28	X29	Y29	Z29	X30	Y30	Z30	X31	Y31	Z31	X32	Y32	Z32	X33	Y33	Z33	X34	Y34	Z34	X35	Y35	Z35	X36	Y36	Z36	X37	Y37	Z37	X38	Y38	Z38	X39	Y39	Z39	X40	Y40	Z40	X41	Y41	Z41	X42	Y42	Z42
																																																																																																																															
188	1.87	541.98932	1751.70837	1460.40967	547.7868	1740.72449	1603.86694	436.13	1644.38354	1457.93677	429.96088	1628.39319	1599.89038	400.42581	1527.40149	1535.6449	334.0751	1256.10779	1540.11365	536.64917	1453.26904	1518.08154	579.35358	1277.4176	1528.7196	339.64447	1360.86572	1605.0929	464.54007	1497.34241	1351.32788	416.8447	1303.60974	1270.84192	384.39359	1168.24524	1259.48425	359.83322	1041.26294	1235.4436	388.82407	903.55933	1244.08142	339.69629	920.03937	1221.55054	341.98392	853.41327	1211.05103	493.77014	1492.21948	1715.79602	501.01001	1299.96326	1804.80603	549.38831	1159.21582	1820.42297	616.05811	1058.59998	1832.21277	703.68317	958.22052	1806.07068	661.50238	936.32111	1837.77332	719.51367	893.29193	1839.47046	568.05286	993.24731	1403.08984	563.15674	974.78101	1660.67212	356.26926	1032.29224	1477.9303	347.65158	1031.97644	1592.05359	552.94678	689.33752	1322.50427	588.67999	490.71597	1351.22241	592.90753	296.72321	1352.96277	676.45685	85.6291	1362.42847	667.38934	51.69509	1420.92065	825.26123	88.76363	1312.31299	454.92044	670.41522	1703.02771	425.42157	462.45642	1655.62341	357.70908	286.20264	1654.16577	317.23709	97.69531	1607.36438	279.86118	46.39969	1549.15735	462.91815	37.54168	1632.72754	426.74863	1791.17786	1549.2804	2845.7749	1034.23914	-3357.38623	NaN	NaN	NaN
189	1.88	549.32843	1750.77734	1459.03003	555.06073	1739.82373	1602.51208	443.15799	1643.74243	1456.57813	437.13712	1627.84888	1598.82788	407.4303	1526.48132	1534.48462	341.23511	1254.94812	1538.9093	543.68732	1452.46216	1516.76563	586.54401	1276.68896	1527.50769	346.88385	1359.8894	1604.03125	471.18469	1496.39465	1350.12598	422.51132	1302.88	1269.41113	390.33588	1167.63623	1258.32971	365.12039	1041.05676	1234.03418	393.16647	902.96173	1242.21399	343.97256	919.74786	1220.03955	345.90945	853.19452	1209.23804	500.89792	1491.34534	1714.56653	508.45053	1299.05396	1803.49084	557.59369	1158.55481	1819.21606	625.08875	1058.28662	1830.38953	713.53168	958.85059	1803.71924	671.729	936.57513	1835.68579	730.00787	894.0105	1836.88391	575.41736	992.14423	1402.48511	570.3316	973.86133	1660.04382	364.181	1031.13489	1477.19348	354.95779	1031.31323	1591.28796	561.19861	688.31824	1322.58374	597.79059	489.94485	1351.271	605.44391	296.22452	1351.71765	693.02216	86.73109	1360.52002	683.87372	52.90088	1418.77893	842.55011	91.32323	1312.40283	460.51813	670.14148	1702.74097	429.20679	462.13446	1655.25623	359.83719	286.55414	1653.88574	317.51273	98.13546	1607.03674	280.21268	46.88941	1548.73987	462.9722	37.51294	1632.79407	434.12427	1790.54578	1547.94141	2845.22485	1034.11841	-3360.30151	NaN	NaN	NaN
190	1.89	556.63489	1749.8252	1457.62488	562.30609	1738.86548	1601.09656	450.34424	1643.01294	1455.13049	443.99094	1627.11316	1597.0824	414.39157	1525.62061	1533.25037	348.61218	1254.15283	1538.03943	550.75403	1451.64246	1515.3125	593.89581	1275.97034	1526.1825	353.9866	1358.79663	1602.57092	477.84476	1495.52393	1348.80786	428.7572	1302.03052	1268.10986	396.44531	1167.03003	1257.052	370.42291	1040.6803	1232.49817	398.05435	902.37341	1240.23035	348.85535	919.44055	1218.24573	350.36636	852.87122	1207.34473	508.06284	1490.48291	1713.24316	515.84418	1298.12988	1802.12915	565.61713	1157.77246	1817.80164	633.94025	1057.97974	1828.63391	723.07153	959.36328	1801.33313	681.60223	936.54248	1833.0658	740.22742	894.64349	1834.22546	582.92206	991.06158	1401.68481	577.6333	972.90619	1659.21655	370.87012	1030.30798	1476.21313	362.366	1030.53052	1590.41504	569.7464	687.23688	1322.39709	606.88824	489.25067	1351.16064	617.50476	295.8082	1350.5885	708.39923	87.70914	1358.76038	698.84137	53.1338	1416.68994	858.58337	93.29768	1312.53748	466.01617	669.67017	1702.1947	433.05234	461.91101	1654.91284	361.97263	286.88992	1653.60645	318.01672	98.86017	1606.87231	280.4328	47.72975	1548.48645	463.03818	37.46934	1632.84729	441.50113	1790.1853	1546.35229	2845.99927	1034.21155	-3357.43506	NaN	NaN	NaN
191	1.9	564.18079	1749.02051	1456.2196	569.64801	1737.94482	1599.60352	457.43195	1642.41577	1453.56885	450.99527	1626.44849	1595.51184	421.45007	1524.58081	1531.69165	355.96896	1253.12	1536.8916	557.89673	1450.78821	1513.7644	601.29218	1275.26074	1524.79041	361.29636	1357.88989	1601.32019	484.51654	1494.5177	1347.39148	435.37515	1301.21826	1266.80481	402.61368	1166.30896	1255.67432	377.03912	1039.94727	1231.2572	403.17374	901.66608	1238.29675	354.00864	919.06238	1216.50439	355.26358	852.4621	1205.40002	515.27478	1489.6344	1711.81775	523.22742	1297.21582	1800.57959	573.38269	1156.82617	1816.10132	642.59601	1057.6084	1826.62036	732.3136	959.75397	1798.79089	690.94397	936.36963	1830.3446	750.08575	895.13391	1831.45776	590.39838	989.95721	1400.70215	585.02905	971.96356	1658.29858	378.28064	1029.47339	1475.41846	369.79089	1029.78955	1589.50232	578.62335	686.26257	1322.17529	616.13519	488.53781	1350.86389	629.05182	295.4191	1349.51392	722.5752	88.55875	1357.22229	712.72913	53.77885	1415.01624	873.19775	94.76908	1312.61511	471.55124	669.22705	1701.604	437.02289	461.89551	1654.77356	364.07758	287.36157	1653.31262	318.6759	99.71407	1606.90051	281.16678	48.40674	1548.52844	463.1214	37.46164	1632.93555	448.95166	1789.36584	1544.94263	2845.20361	1034.18481	-3360.27661	NaN	NaN	NaN
